<svg xmlns="http://www.w3.org/2000/svg" xmlns:xlink="http://www.w3.org/1999/xlink" width="800" height="648" viewBox="0 0 800 648">
  <defs>
    <clipPath id="clip-path">
      <path id="Path_935" data-name="Path 935" d="M0,0H800V648L0,628Z" transform="translate(0 140)" fill="#1c283f"/>
    </clipPath>
  </defs>
  <g id="circuit_bg" data-name="circuit bg" transform="translate(0 -140)" clip-path="url(#clip-path)">
    <g id="Group_1182" data-name="Group 1182" transform="translate(-44.505 902.533) rotate(-90)" opacity="0.27">
      <g id="Group_1181" data-name="Group 1181" transform="translate(-25.725 12.698)">
        <g id="Group_1180" data-name="Group 1180">
          <path id="Path_884" data-name="Path 884" d="M281.725,205.782a4.169,4.169,0,1,0,1.465,0V180.259l56.788-56.788v-93.7h-1.465v93.091l-56.788,56.788Zm3.437,4.1a2.7,2.7,0,1,1-5.409,0,2.665,2.665,0,0,1,1.972-2.578,2.241,2.241,0,0,1,.722-.117,2.362,2.362,0,0,1,.742.117A2.66,2.66,0,0,1,285.162,209.883Z" transform="translate(315.395 3.574)" fill="#4e83ff"/>
          <path id="Path_885" data-name="Path 885" d="M297.661,96.649a3.449,3.449,0,1,0-1.033-1.037l-20.813,20.813v55.831a4.169,4.169,0,1,0,1.465,0V117.031Zm-18.409,79.708a2.7,2.7,0,1,1-5.409,0,2.665,2.665,0,0,1,1.972-2.578,2.24,2.24,0,0,1,.723-.117,2.359,2.359,0,0,1,.742.117A2.66,2.66,0,0,1,279.252,176.358Z" transform="translate(309.763 61.275)" fill="#4e83ff"/>
          <path id="Path_886" data-name="Path 886" d="M324.964,122.95H302.722L267.4,158.257v33.608a4.169,4.169,0,1,0,1.465,0v-33l34.467-34.448H325.57l14.724-14.744V49.035a4.169,4.169,0,1,0-1.465,0v60.03Zm-54.132,73.035a2.695,2.695,0,1,1-5.39,0,2.672,2.672,0,0,1,1.953-2.6,2.361,2.361,0,0,1,.742-.117,2.241,2.241,0,0,1,.723.117A2.671,2.671,0,0,1,270.832,195.985Zm66.025-151.05a2.7,2.7,0,0,1,5.409,0,2.665,2.665,0,0,1-1.972,2.578,2.242,2.242,0,0,1-.723.117,2.36,2.36,0,0,1-.742-.117A2.66,2.66,0,0,1,336.857,44.934Z" transform="translate(301.76 14.055)" fill="#4e83ff"/>
          <path id="Path_887" data-name="Path 887" d="M275.7,233.878V119.319L381.288,13.733,380.252,12.7,274.237,118.713V233.272L98.072,409.437h-123.8V410.9h124.4Z" transform="translate(25.725 -12.698)" fill="#4e83ff"/>
          <path id="Path_888" data-name="Path 888" d="M138.395,179.844l67.15-67.152a3.433,3.433,0,1,0-1.039-1.031L139.86,176.308V118.866l94.8-94.8-1.035-1.035L138.395,118.26Z" transform="translate(182.102 -2.848)" fill="#4e83ff"/>
          <path id="Path_889" data-name="Path 889" d="M225.076,108.329l49.738-49.738h62.873a3.416,3.416,0,1,0-.041-1.465H274.209L224.47,106.865h-28.15L276.8,26.387l-1.035-1.035-82.977,82.977Z" transform="translate(233.927 -0.641)" fill="#4e83ff"/>
          <path id="Path_890" data-name="Path 890" d="M209.964,150.778a3.4,3.4,0,1,0,1.08.992l52.013-52.013H343.22l30.241-30.243V26.983H372V68.906L342.613,98.292H262.452Z" transform="translate(245.365 0.913)" fill="#4e83ff"/>
          <path id="Path_891" data-name="Path 891" d="M89.89,262.71a3.438,3.438,0,1,0,1.465,0V130.362l18.017,18.019V187.1l-10.6,10.623v31.753a4.15,4.15,0,1,0,1.465,0V198.333l10.6-10.623V147.775L91.355,128.292V93.6L47.52,49.767,46.485,50.8,89.89,94.207Zm12.295-29.128a2.7,2.7,0,1,1-3.417-2.6,2.9,2.9,0,0,1,.7-.1,2.394,2.394,0,0,1,.762.117A2.7,2.7,0,0,1,102.185,233.582Z" transform="translate(94.528 22.622)" fill="#4e83ff"/>
          <path id="Path_892" data-name="Path 892" d="M203.346,192.665H308.006a3.418,3.418,0,1,0-.031-1.465H202.741l-95.128,95.128H-25.725v1.465H108.221Z" transform="translate(25.725 154.755)" fill="#4e83ff"/>
          <path id="Path_893" data-name="Path 893" d="M259.626,147.892a3.433,3.433,0,1,0,0-1.465H240.955l-49.279,49.277H111.665L152.271,155.1a3.513,3.513,0,1,0-1.01-1.06L108.128,197.17h84.155l49.277-49.277Z" transform="translate(153.263 112.149)" fill="#4e83ff"/>
          <path id="Path_894" data-name="Path 894" d="M169.422,181l26.129-26.129h.02a3.942,3.942,0,0,0,2.265.7,4.189,4.189,0,1,0-3.339-1.7l-25.68,25.66H128.433l25.309-25.289a4.16,4.16,0,0,0,6.64-3.339,4.169,4.169,0,1,0-7.655,2.285L124.9,181Zm25.719-29.585a2.695,2.695,0,1,1,2.695,2.695,2.579,2.579,0,0,1-1.211-.293,2.518,2.518,0,0,1-1.074-1A2.688,2.688,0,0,1,195.141,151.412Zm-41.634-.508a2.728,2.728,0,1,1,1.289,2.285,2.518,2.518,0,0,1-1-1.074A2.579,2.579,0,0,1,153.507,150.9Z" transform="translate(169.242 115.025)" fill="#4e83ff"/>
          <path id="Path_895" data-name="Path 895" d="M98.286,102.912V80.265L74.161,56.142a3.444,3.444,0,1,0-1.035,1.035l23.7,23.694v21.436l-7.936,7.934V85.476l-22.9-22.9a3.452,3.452,0,1,0-1.033,1.037l.01.012L87.42,86.1v31.421a4.169,4.169,0,1,0,1.465,0v-5.208Zm-7.429,18.729a2.7,2.7,0,0,1-5.409,0,2.666,2.666,0,0,1,1.972-2.6,2.36,2.36,0,0,1,.742-.117,2.241,2.241,0,0,1,.723.117A2.671,2.671,0,0,1,90.857,121.642Z" transform="translate(107.087 23.662)" fill="#4e83ff"/>
          <path id="Path_896" data-name="Path 896" d="M372.291,182.427V29.775h-1.465V181.819L320.249,232.4V298a3.431,3.431,0,1,0,1.465,0V233.007Z" transform="translate(352.8 3.574)" fill="#4e83ff"/>
          <path id="Path_897" data-name="Path 897" d="M426.082,164.945a4.163,4.163,0,0,0-4.16,4.16,4.108,4.108,0,0,0,.742,2.382l-91.392,91.392h-111L124.313,358.84H-25.722V360.3h150.64l95.961-95.961h111l91.841-91.822a3.971,3.971,0,0,0,2.363.762,4.169,4.169,0,0,0,0-8.339Zm1.5,6.405a2.688,2.688,0,0,1-1.5.469,2.528,2.528,0,0,1-1.308-.351l.02-.02a2.521,2.521,0,0,1-1.172-1.289.072.072,0,0,1-.02-.059,2.18,2.18,0,0,1-.215-1,2.688,2.688,0,0,1,.469-1.5,2.547,2.547,0,0,1,.723-.723,2.647,2.647,0,0,1,3.007,0,2.342,2.342,0,0,1,.41.332,2.739,2.739,0,0,1,.781,1.894A2.7,2.7,0,0,1,427.586,171.35Z" transform="translate(25.728 132.366)" fill="#4e83ff"/>
          <path id="Path_898" data-name="Path 898" d="M305.191,113.9l16.876-16.878a3.4,3.4,0,0,0,1.871.56,3.456,3.456,0,1,0-2.9-1.605l-17.316,17.316v68.474L285.19,200.3h-54.7L179.482,251.31a3.451,3.451,0,1,0,1.035,1.035L231.1,201.763h54.7l19.4-19.4Z" transform="translate(216.218 61.636)" fill="#4e83ff"/>
          <path id="Path_899" data-name="Path 899" d="M205.754,243.647h104.81a3.42,3.42,0,1,0,.215-1.465H205.149l-73.7,73.694H-25.725v1.465H132.061Z" transform="translate(25.725 203.861)" fill="#4e83ff"/>
          <path id="Path_900" data-name="Path 900" d="M115.178,229.042a4.169,4.169,0,1,0,0,1.465h129.1L191.65,283.135H159.858a4.169,4.169,0,1,0,0,1.465h32.4l55.558-55.558Zm-1.523,1.465a2.665,2.665,0,0,1-2.578,1.972,2.7,2.7,0,1,1,2.578-3.437,2.36,2.36,0,0,1,.117.742A2.241,2.241,0,0,1,113.655,230.507Zm44.68,54.093a2.409,2.409,0,0,1-.723,1.211,1.249,1.249,0,0,1-.293.254,2.83,2.83,0,0,1-1.055.449,2.13,2.13,0,0,1-.508.059h-.02a2.7,2.7,0,0,1-2.695-2.714,2.594,2.594,0,0,1,.8-1.894,2.077,2.077,0,0,1,.391-.332,2.641,2.641,0,0,1,1.5-.469h.02a2.424,2.424,0,0,1,.527.059,1.534,1.534,0,0,1,.508.156,1.8,1.8,0,0,1,.469.254,1.752,1.752,0,0,1,.371.293,2.437,2.437,0,0,1,.547.8,3.525,3.525,0,0,1,.156.41,2.242,2.242,0,0,1,.117.723A2.362,2.362,0,0,1,158.335,284.6Z" transform="translate(152.091 190.164)" fill="#4e83ff"/>
          <path id="Path_901" data-name="Path 901" d="M252.809,182.087h29.507a4.169,4.169,0,1,0,0-1.465H252.2l-25.113,25.113v19.919L200.044,252.72h-22.8a3.437,3.437,0,1,0-.006,1.465h23.41l47.395-47.414h19.177a4.169,4.169,0,1,0,0-1.465H247.439l-18.884,18.884V206.341Zm33.608-3.437a2.7,2.7,0,0,1,0,5.409,2.665,2.665,0,0,1-2.578-1.972,2.24,2.24,0,0,1-.117-.723,2.359,2.359,0,0,1,.117-.742A2.66,2.66,0,0,1,286.417,178.65Zm-15.076,24.684a2.7,2.7,0,1,1-2.6,3.437,2.361,2.361,0,0,1-.117-.742,2.241,2.241,0,0,1,.117-.723A2.706,2.706,0,0,1,271.341,203.333Z" transform="translate(212.651 144.029)" fill="#4e83ff"/>
          <path id="Path_902" data-name="Path 902" d="M183.937,198.227a4.169,4.169,0,1,0,0-1.465H105.356L86.864,215.253a3.445,3.445,0,1,0,1.037,1.033l18.079-18.06Zm4.1-3.437a2.7,2.7,0,0,1,0,5.409,2.66,2.66,0,0,1-2.578-1.972,2.361,2.361,0,0,1-.117-.742,2.241,2.241,0,0,1,.117-.723A2.665,2.665,0,0,1,188.038,194.79Z" transform="translate(127.973 159.407)" fill="#4e83ff"/>
          <path id="Path_903" data-name="Path 903" d="M189.1,441.257V374.2l48-48a3.452,3.452,0,1,0-1.035-1.037L187.64,373.59v67.06l-68.011,68.009H26.314v1.465h93.923Z" transform="translate(75.309 279.987)" fill="#4e83ff"/>
          <path id="Path_904" data-name="Path 904" d="M118.737,367.858,163.2,323.392a3.971,3.971,0,0,0,2.363.762,4.143,4.143,0,1,0-3.417-1.777l-44.876,44.876v66.357L84.68,466.2a3.986,3.986,0,0,0-2.382-.762,4.169,4.169,0,1,0,4.16,4.179,4.108,4.108,0,0,0-.742-2.382l33.022-33.022Zm44.134-47.864a2.695,2.695,0,1,1,2.695,2.695,2.527,2.527,0,0,1-1.308-.352,2.637,2.637,0,0,1-1.035-1.035A2.527,2.527,0,0,1,162.871,319.994ZM84.992,469.619A2.695,2.695,0,1,1,82.3,466.9a2.372,2.372,0,0,1,1.308.371,2.308,2.308,0,0,1,1.035,1.035A2.528,2.528,0,0,1,84.992,469.619Z" transform="translate(124.688 276.118)" fill="#4e83ff"/>
          <path id="Path_905" data-name="Path 905" d="M211.832,237.088a3.391,3.391,0,0,0,1.845.547,3.45,3.45,0,1,0-2.882-1.58L163.3,283.546V335.9a4.169,4.169,0,1,0,1.465,0v-51.75ZM166.742,340a2.7,2.7,0,0,1-5.409,0,2.66,2.66,0,0,1,1.972-2.578,2.36,2.36,0,0,1,.742-.117,2.241,2.241,0,0,1,.723.117A2.665,2.665,0,0,1,166.742,340Z" transform="translate(202.562 195.084)" fill="#4e83ff"/>
          <path id="Path_906" data-name="Path 906" d="M39.5,410.231V411.7H99.391l36.244-36.264a4.091,4.091,0,0,0,2.363.742,4.159,4.159,0,1,0-4.16-4.16,3.986,3.986,0,0,0,.762,2.382L98.786,410.231ZM135.3,372.014A2.695,2.695,0,1,1,138,374.709a2.41,2.41,0,0,1-1.289-.352,2.217,2.217,0,0,1-1.035-1.035A2.371,2.371,0,0,1,135.3,372.014Z" transform="translate(87.871 325.702)" fill="#4e83ff"/>
          <path id="Path_907" data-name="Path 907" d="M83.368,325.343H44.849v1.465H83.976L135.3,275.485h25.922a3.433,3.433,0,1,0,0-1.465H134.69Z" transform="translate(92.97 233.722)" fill="#4e83ff"/>
          <path id="Path_908" data-name="Path 908" d="M136.068,268.4h-35.19a4.169,4.169,0,1,0,0,1.465h34.584l19.1,19.118-29.878,29.878a4.042,4.042,0,0,0-2.187-.644,4.169,4.169,0,1,0,4.16,4.159,4.122,4.122,0,0,0-.879-2.539l30.855-30.854Zm-39.291,3.437a2.7,2.7,0,0,1,0-5.409,2.66,2.66,0,0,1,2.578,1.972,2.361,2.361,0,0,1,.117.742,2.241,2.241,0,0,1-.117.723A2.665,2.665,0,0,1,96.778,271.839Zm28.413,50.539a2.7,2.7,0,1,1-2.695-2.695,2.447,2.447,0,0,1,1.113.254,2.32,2.32,0,0,1,1.113.957A2.485,2.485,0,0,1,125.191,322.378Z" transform="translate(138.485 227.667)" fill="#4e83ff"/>
          <path id="Path_909" data-name="Path 909" d="M118.12,342.223V308.244l24.447-24.467a3.45,3.45,0,1,0-1.033-1.037h0l-24.879,24.9v33.979l-33.1,33.1v22.028a4.15,4.15,0,1,0,1.465,0V375.324ZM86.972,400.847a2.695,2.695,0,0,1-5.39,0,2.665,2.665,0,0,1,1.972-2.578,2.241,2.241,0,0,1,.723-.117,2.36,2.36,0,0,1,.742.117A2.665,2.665,0,0,1,86.972,400.847Z" transform="translate(126.575 239.574)" fill="#4e83ff"/>
          <path id="Path_910" data-name="Path 910" d="M114.561,335.408V300.569L128.329,286.8a4.074,4.074,0,0,0,2.382.762,4.169,4.169,0,1,0-4.179-4.179,3.987,3.987,0,0,0,.762,2.382l-14.2,14.2V334.8L77.985,369.914V414.3a4.15,4.15,0,1,0,1.465,0V370.519ZM128,283.384a2.7,2.7,0,1,1,2.714,2.714,2.547,2.547,0,0,1-1.328-.351,2.638,2.638,0,0,1-1.035-1.035A2.546,2.546,0,0,1,128,283.384ZM81.4,418.4a2.695,2.695,0,1,1-5.39,0,2.666,2.666,0,0,1,1.972-2.578,2.242,2.242,0,0,1,.723-.117,2.362,2.362,0,0,1,.742.117A2.666,2.666,0,0,1,81.4,418.4Z" transform="translate(121.267 241.254)" fill="#4e83ff"/>
          <path id="Path_911" data-name="Path 911" d="M62.583,58.011a3.43,3.43,0,1,0,1.465,0V48.346l10.8-10.78H96.191a4.169,4.169,0,1,0,0-1.465H74.241L62.583,47.741ZM100.292,34.13a2.695,2.695,0,1,1,0,5.39,2.665,2.665,0,0,1-2.578-1.953,2.36,2.36,0,0,1-.117-.742,2.241,2.241,0,0,1,.117-.723A2.665,2.665,0,0,1,100.292,34.13Z" transform="translate(107.299 6.327)" fill="#4e83ff"/>
          <path id="Path_912" data-name="Path 912" d="M302.837,305.7a4.163,4.163,0,0,0-4.16,4.16,3.986,3.986,0,0,0,.762,2.382l-82.76,82.741v67.821L127.63,551.858H26.318v1.465H128.236l89.908-89.908V395.593l82.331-82.311a4.158,4.158,0,1,0,2.363-7.577Zm0,6.854a2.409,2.409,0,0,1-1.289-.351,2.217,2.217,0,0,1-1.035-1.035,2.372,2.372,0,0,1-.371-1.308,2.695,2.695,0,1,1,2.695,2.695Z" transform="translate(75.313 266.485)" fill="#4e83ff"/>
          <path id="Path_913" data-name="Path 913" d="M141.9,185.634a4.16,4.16,0,0,0,8.319,0,4.215,4.215,0,0,0-.742-2.4L246.524,86.2a3.4,3.4,0,0,0,1.726.482,3.448,3.448,0,1,0-2.808-1.469l-.006,0-97.016,97a3.971,3.971,0,0,0-2.363-.762A4.167,4.167,0,0,0,141.9,185.634Zm6.5-1.328a2.547,2.547,0,0,1,.352,1.328,2.695,2.695,0,1,1-2.695-2.714,2.726,2.726,0,0,1,2.343,1.386Z" transform="translate(185.44 51.256)" fill="#4e83ff"/>
          <path id="Path_914" data-name="Path 914" d="M232.923,105.424a4.169,4.169,0,1,0-4.179-4.16,3.971,3.971,0,0,0,.762,2.363l-73.758,73.758H218.59a4.15,4.15,0,1,0,0-1.465H159.283l71.258-71.258A4.074,4.074,0,0,0,232.923,105.424Zm-10.233,68.544a2.695,2.695,0,1,1,0,5.39,2.665,2.665,0,0,1-2.578-1.972,2.241,2.241,0,0,1-.117-.723,2.361,2.361,0,0,1,.117-.742A2.666,2.666,0,0,1,222.691,173.967Zm7.518-72.7a2.7,2.7,0,1,1,2.714,2.695,2.547,2.547,0,0,1-1.328-.352,2.726,2.726,0,0,1-1.386-2.343Z" transform="translate(198.636 67.708)" fill="#4e83ff"/>
          <path id="Path_915" data-name="Path 915" d="M369.666,64.895a3.971,3.971,0,0,0,.762,2.363L342.112,95.573H269.584l-57.762,57.762a3.435,3.435,0,1,0,1.041,1.031l57.327-57.329h72.528l28.726-28.726a4.367,4.367,0,0,0,2.4.742,4.16,4.16,0,1,0-4.179-4.16Zm4.179-2.695a2.695,2.695,0,0,1,0,5.39,2.547,2.547,0,0,1-1.328-.352,2.726,2.726,0,0,1-1.387-2.343A2.7,2.7,0,0,1,373.845,62.2Z" transform="translate(247.04 33.073)" fill="#4e83ff"/>
          <path id="Path_916" data-name="Path 916" d="M324.363,341.8V281.1L311.377,268.1V222.3l12.518-12.518V201.9l33.1-33.1a3.971,3.971,0,0,0,2.363.762,4.169,4.169,0,1,0-4.159-4.16,3.97,3.97,0,0,0,.762,2.363l-9.17,9.172v-16.9l21.141-21.143V85.911L357.307,75.287V29.775h-1.465V133.06l-60.557,60.557V333.2a4.169,4.169,0,1,0,1.465,0V194.222l60.557-60.557V77.359l9.159,9.157v51.771L345.324,159.43V178.4l-.008.006L322.43,201.271v7.889l-11.053,11.072V198.166L328.464,181.1a3.971,3.971,0,0,0,2.363.762,4.169,4.169,0,1,0-4.16-4.179,4.108,4.108,0,0,0,.742,2.382l-17.5,17.5V268.7L322.9,281.708V341.8a4.13,4.13,0,1,0,1.465,0Zm32.3-176.4a2.7,2.7,0,1,1,2.695,2.695,2.528,2.528,0,0,1-1.308-.352,2.638,2.638,0,0,1-1.035-1.035A2.527,2.527,0,0,1,356.662,165.4Zm-57.94,171.926a2.695,2.695,0,1,1-5.39,0,2.671,2.671,0,0,1,1.953-2.6,2.362,2.362,0,0,1,.742-.117,2.243,2.243,0,0,1,.723.117A2.671,2.671,0,0,1,298.722,337.324Zm29.409-159.643a2.695,2.695,0,1,1,2.695,2.714,2.726,2.726,0,0,1-2.695-2.714ZM323.6,348.592a2.692,2.692,0,0,1-.7-5.292,2.9,2.9,0,0,1,.7-.1,2.394,2.394,0,0,1,.762.117,2.691,2.691,0,0,1-.762,5.273Z" transform="translate(328.334 3.574)" fill="#4e83ff"/>
          <path id="Path_917" data-name="Path 917" d="M309.173,241.619V169.795l-5.743-5.745a3.446,3.446,0,1,0-1.035,1.037l0,0,5.312,5.312v71.219a4.169,4.169,0,1,0,1.465,0Zm-.722,6.815a2.709,2.709,0,0,1-2.714-2.714,2.66,2.66,0,0,1,1.972-2.578,2.36,2.36,0,0,1,.742-.117,2.24,2.24,0,0,1,.722.117,2.665,2.665,0,0,1,1.972,2.578A2.7,2.7,0,0,1,308.451,248.435Z" transform="translate(333.329 126.481)" fill="#4e83ff"/>
          <path id="Path_918" data-name="Path 918" d="M112.157,204.224a4.175,4.175,0,0,0,.742-8.28V16.285h-1.465V195.944a4.173,4.173,0,0,0,.723,8.28Zm-.723-6.757a2.241,2.241,0,0,1,.723-.117,2.361,2.361,0,0,1,.742.117,2.665,2.665,0,0,1,1.953,2.578,2.695,2.695,0,1,1-5.39,0A2.665,2.665,0,0,1,111.435,197.467Z" transform="translate(153.139 -9.28)" fill="#4e83ff"/>
          <path id="Path_919" data-name="Path 919" d="M100.195,46.9v38.92l13.67,13.67v51.066l-9.237,9.217v76.589a4.169,4.169,0,1,0,1.465,0V160.374l9.237-9.217V98.879L101.66,85.21V46.9a4.169,4.169,0,1,0-1.465,0Zm7.87,193.583a2.7,2.7,0,1,1-3.437-2.6,2.361,2.361,0,0,1,.742-.117,2.241,2.241,0,0,1,.723.117A2.706,2.706,0,0,1,108.065,240.478ZM100.937,40.1a2.7,2.7,0,0,1,2.695,2.695,2.665,2.665,0,0,1-1.972,2.578,2.241,2.241,0,0,1-.723.117,2.361,2.361,0,0,1-.742-.117,2.66,2.66,0,0,1-1.972-2.578A2.7,2.7,0,0,1,100.937,40.1Z" transform="translate(142.429 12.016)" fill="#4e83ff"/>
          <path id="Path_920" data-name="Path 920" d="M59.406,63.253a3.378,3.378,0,0,0,.723-6.679v-8.9L70.284,37.515a3.34,3.34,0,0,0,1.855.547,3.378,3.378,0,1,0-3.378-3.378,3.21,3.21,0,0,0,.508,1.777l-10.6,10.6v9.51a3.381,3.381,0,0,0,.742,6.679Zm10.526-28.57a2.2,2.2,0,1,1,2.207,2.187,2.06,2.06,0,0,1-.976-.234A2.217,2.217,0,0,1,70.127,35.6,2.337,2.337,0,0,1,69.932,34.683ZM58.664,57.824a1.925,1.925,0,0,1,.742-.137,1.829,1.829,0,0,1,.723.137,2.135,2.135,0,0,1,1.465,2.05,2.187,2.187,0,1,1-2.929-2.05Z" transform="translate(103.621 5.031)" fill="#4e83ff"/>
          <path id="Path_921" data-name="Path 921" d="M268.332,37.915a4.173,4.173,0,0,0-4.1,3.437H211.408L161.65,91.11a4.092,4.092,0,0,0-2.363-.742,4.16,4.16,0,1,0,4.16,4.159,3.987,3.987,0,0,0-.762-2.382l49.328-49.328h52.218a4.163,4.163,0,1,0,4.1-4.9ZM161.982,94.527a2.7,2.7,0,1,1-2.695-2.695,2.409,2.409,0,0,1,1.289.352,2.217,2.217,0,0,1,1.035,1.035A2.372,2.372,0,0,1,161.982,94.527Zm106.35-49.738a2.665,2.665,0,0,1-2.578-1.972,2.239,2.239,0,0,1-.117-.723,2.359,2.359,0,0,1,.117-.742,2.66,2.66,0,0,1,2.578-1.972,2.7,2.7,0,0,1,0,5.409Z" transform="translate(198.026 11.33)" fill="#4e83ff"/>
          <path id="Path_922" data-name="Path 922" d="M148.907,147.338a4.172,4.172,0,1,0,3.417,1.8l67.763-67.782h.02a4.108,4.108,0,0,0,2.382.742,4.16,4.16,0,1,0-4.16-4.16,4.092,4.092,0,0,0,.742,2.363L151.29,148.1A3.987,3.987,0,0,0,148.907,147.338Zm70.887-69.4a2.695,2.695,0,1,1,2.695,2.695,2.371,2.371,0,0,1-1.308-.371,2.217,2.217,0,0,1-1.035-1.035A2.41,2.41,0,0,1,219.795,77.934ZM151.6,151.517a2.695,2.695,0,1,1-2.695-2.714,2.371,2.371,0,0,1,1.308.371,2.308,2.308,0,0,1,1.035,1.035A2.527,2.527,0,0,1,151.6,151.517Z" transform="translate(188.155 45.498)" fill="#4e83ff"/>
          <path id="Path_923" data-name="Path 923" d="M310.689,264.444V211.593l-13.865-13.865V171.482a4.173,4.173,0,1,0-1.465.02v26.832L309.225,212.2V228.72L285.186,204.68V171.814L268.86,155.489V135.765a4.15,4.15,0,1,0-1.465,0v20.329l16.326,16.326v32.866l25.5,25.5v33.643a3.444,3.444,0,1,0,1.465.012ZM293.329,167.4a2.7,2.7,0,0,1,5.409,0,2.648,2.648,0,0,1-1.914,2.558,2.124,2.124,0,0,1-.781.137,2.626,2.626,0,0,1-.683-.1A2.679,2.679,0,0,1,293.329,167.4Zm-27.886-35.737a2.695,2.695,0,0,1,5.39,0,2.665,2.665,0,0,1-1.972,2.578,2.242,2.242,0,0,1-.723.117,2.362,2.362,0,0,1-.742-.117A2.666,2.666,0,0,1,265.443,131.664Z" transform="translate(301.76 96.693)" fill="#4e83ff"/>
          <path id="Path_924" data-name="Path 924" d="M282.79,281.242V234.664l-38.08-38.08V164.245a4.15,4.15,0,1,0-1.465,0v32.944l38.08,38.08v45.979a3.429,3.429,0,1,0,1.465-.006Zm-41.5-121.1a2.695,2.695,0,1,1,5.39,0,2.665,2.665,0,0,1-1.972,2.578,2.242,2.242,0,0,1-.723.117,2.362,2.362,0,0,1-.742-.117A2.666,2.666,0,0,1,241.293,160.144Z" transform="translate(278.749 123.81)" fill="#4e83ff"/>
          <path id="Path_925" data-name="Path 925" d="M236.025,45.312a3.433,3.433,0,1,0-3.351-4.165H192.55l14.759-14.759-1.037-1.035L189.013,42.611h43.661A3.432,3.432,0,0,0,236.025,45.312Z" transform="translate(230.332 -0.641)" fill="#4e83ff"/>
          <path id="Path_926" data-name="Path 926" d="M289.873,221.291V167.36l59.338-59.338V59.1a3.433,3.433,0,1,0-1.465,0v48.319l-59.338,59.338v54.568a3.418,3.418,0,1,0,1.465-.031Z" transform="translate(322.518 25.049)" fill="#4e83ff"/>
          <path id="Path_927" data-name="Path 927" d="M91.086,258.537a3.424,3.424,0,0,0,.949-6.716V16.29H90.571V251.724a3.426,3.426,0,0,0,.516,6.813Z" transform="translate(133.754 -9.275)" fill="#4e83ff"/>
          <path id="Path_928" data-name="Path 928" d="M153.109,227.338a3.432,3.432,0,0,0,3.351-2.7h24.783l41.185-41.185H125.608a4.169,4.169,0,1,0,0,1.465h93.286l-38.256,38.256H156.461a3.432,3.432,0,1,0-3.351,4.165Zm-31.622-40.449a2.7,2.7,0,0,1,0-5.409,2.666,2.666,0,0,1,2.6,1.972,2.361,2.361,0,0,1,.117.742,2.241,2.241,0,0,1-.117.723A2.671,2.671,0,0,1,121.487,186.889Z" transform="translate(162.029 146.725)" fill="#4e83ff"/>
          <path id="Path_929" data-name="Path 929" d="M236.487,286.747a3.433,3.433,0,1,0-3.433-3.433,3.394,3.394,0,0,0,.355,1.494L133.278,384.941v35.342l-37.65,37.65H39.5V459.4H96.233l38.51-38.51V385.546l99.584-99.584A3.4,3.4,0,0,0,236.487,286.747Z" transform="translate(87.875 241.879)" fill="#4e83ff"/>
          <path id="Path_930" data-name="Path 930" d="M261.546,221.235a3.43,3.43,0,0,0-3.349,2.695H222.791L206.27,240.451a4.108,4.108,0,0,0-2.382-.742,4.159,4.159,0,1,0,4.16,4.159,4.108,4.108,0,0,0-.742-2.382L223.4,225.395h34.8a3.432,3.432,0,1,0,3.353-4.16Zm-54.964,22.633a2.695,2.695,0,1,1-2.695-2.695,2.528,2.528,0,0,1,1.308.352,2.637,2.637,0,0,1,1.035,1.035A2.527,2.527,0,0,1,206.582,243.868Z" transform="translate(240.541 186)" fill="#4e83ff"/>
          <path id="Path_931" data-name="Path 931" d="M251.573,285.751a4.169,4.169,0,1,0-4.081-5.019h-43.06l-24.937-24.937h-31.46L76.581,327.268H44.848v1.465H77.187L148.64,257.26h30.249L203.827,282.2h43.626A4.2,4.2,0,0,0,251.573,285.751Zm0-6.874a2.7,2.7,0,1,1,0,5.409,2.678,2.678,0,0,1-2.617-2.09,2.2,2.2,0,0,1-.078-.625,2.069,2.069,0,0,1,.156-.84A2.655,2.655,0,0,1,251.573,278.877Z" transform="translate(92.969 218.93)" fill="#4e83ff"/>
          <path id="Path_932" data-name="Path 932" d="M286.674,198.795a4.173,4.173,0,0,0-4.1,3.437H228.792l-27.2,27.2a4.108,4.108,0,0,0-2.382-.742,4.16,4.16,0,1,0,4.16,4.16,3.971,3.971,0,0,0-.762-2.363L229.4,203.7h53.175a4.163,4.163,0,1,0,4.1-4.9ZM201.9,232.852a2.7,2.7,0,1,1-2.695-2.695,2.527,2.527,0,0,1,1.308.352,2.637,2.637,0,0,1,1.035,1.035A2.527,2.527,0,0,1,201.9,232.852Zm84.772-27.183A2.665,2.665,0,0,1,284.1,203.7a2.242,2.242,0,0,1-.117-.723,2.362,2.362,0,0,1,.117-.742,2.683,2.683,0,0,1,2.578-1.972,2.7,2.7,0,0,1,0,5.409Z" transform="translate(236.063 164.619)" fill="#4e83ff"/>
          <path id="Path_933" data-name="Path 933" d="M298.906,227.935a4.188,4.188,0,0,0-4.1,3.437H278.5l-33.842,33.823H223.9l12.711-12.711a3.445,3.445,0,1,0-1.037-1.031l-39.5,39.48V339.6l-42.591,42.61v-49.27a4.169,4.169,0,1,0-1.465,0v52.8l45.52-45.54V291.538l24.9-24.879h22.848L279.1,232.837h15.7a4.172,4.172,0,1,0,4.1-4.9Zm-148.863,100.9a2.7,2.7,0,1,1,3.437,2.578,2.361,2.361,0,0,1-.742.117,2.241,2.241,0,0,1-.722-.117A2.665,2.665,0,0,1,150.043,328.837Zm148.863-94.048a2.665,2.665,0,0,1-2.578-1.953,2.359,2.359,0,0,1-.117-.742,2.239,2.239,0,0,1,.117-.723,2.665,2.665,0,0,1,2.578-1.972,2.695,2.695,0,1,1,0,5.39Z" transform="translate(191.804 192.384)" fill="#4e83ff"/>
          <path id="Path_934" data-name="Path 934" d="M292.551,304.721V277.889L255.76,241.117V111.665a4.15,4.15,0,1,0-1.465,0V241.723l36.791,36.772v26.226a4.15,4.15,0,1,0,1.465,0ZM252.343,107.544a2.695,2.695,0,0,1,5.39,0,2.671,2.671,0,0,1-1.972,2.6,2.241,2.241,0,0,1-.723.117,2.36,2.36,0,0,1-.742-.117A2.672,2.672,0,0,1,252.343,107.544Zm39.466,203.972a2.7,2.7,0,0,1-2.695-2.695,2.665,2.665,0,0,1,1.972-2.578,2.242,2.242,0,0,1,.723-.117,2.361,2.361,0,0,1,.742.117,2.665,2.665,0,0,1,1.953,2.578A2.7,2.7,0,0,1,291.809,311.516Z" transform="translate(289.278 73.711)" fill="#4e83ff"/>
        </g>
      </g>
    </g>
  </g>
</svg>
