<svg xmlns="http://www.w3.org/2000/svg" xmlns:xlink="http://www.w3.org/1999/xlink" width="481.333" height="413.785" viewBox="0 0 481.333 413.785">
  <defs>
    <clipPath id="clip-path">
      <path id="Path_935" data-name="Path 935" d="M0,0H480l.667,393.667L239.384,413.785-.667,393.667Z" transform="translate(0 140)" fill="#1c283f"/>
    </clipPath>
  </defs>
  <g id="circuit_bg_mobile" data-name="circuit bg mobile" transform="translate(0.667 -140)" clip-path="url(#clip-path)">
    <g id="Group_1182" data-name="Group 1182" transform="translate(-19.084 612.955) rotate(-90)" opacity="0.27">
      <g id="Group_1181" data-name="Group 1181" transform="translate(0)">
        <g id="Group_1180" data-name="Group 1180">
          <path id="Path_884" data-name="Path 884" d="M2.062,105.6a2.5,2.5,0,0,0,.433,4.968,2.5,2.5,0,0,0,.445-4.968V90.29L37.014,56.218V0h-.879V55.854L2.062,89.927Zm2.062,2.461a1.623,1.623,0,1,1-3.246,0,1.6,1.6,0,0,1,1.183-1.547,1.344,1.344,0,0,1,.433-.07,1.417,1.417,0,0,1,.445.07A1.6,1.6,0,0,1,4.124,108.065Z" transform="translate(356.21 20.009)" fill="#4e83ff"/>
          <path id="Path_885" data-name="Path 885" d="M15.17,3.789a2.07,2.07,0,1,0-.62-.622L2.062,15.655v33.5A2.5,2.5,0,0,0,2.5,54.122a2.5,2.5,0,0,0,.445-4.968V16.018ZM4.124,51.614a1.623,1.623,0,1,1-3.246,0,1.6,1.6,0,0,1,1.183-1.547A1.344,1.344,0,0,1,2.5,50a1.416,1.416,0,0,1,.445.07A1.6,1.6,0,0,1,4.124,51.614Z" transform="translate(349.285 90.966)" fill="#4e83ff"/>
          <path id="Path_886" data-name="Path 886" d="M36.592,49.3H23.246L2.05,70.489V90.654a2.5,2.5,0,1,0,2.941,2.472,2.527,2.527,0,0,0-2.062-2.472v-19.8L23.61,50.184H36.955l8.835-8.846V4.956a2.5,2.5,0,1,0-.879,0V40.974ZM4.113,93.126a1.617,1.617,0,1,1-3.234,0A1.6,1.6,0,0,1,2.05,91.568,1.416,1.416,0,0,1,2.5,91.5a1.345,1.345,0,0,1,.434.07A1.6,1.6,0,0,1,4.113,93.126ZM43.728,2.5a1.623,1.623,0,0,1,3.246,0A1.6,1.6,0,0,1,45.79,4.042a1.345,1.345,0,0,1-.434.07,1.416,1.416,0,0,1-.445-.07A1.6,1.6,0,0,1,43.728,2.5Z" transform="translate(339.443 32.898)" fill="#4e83ff"/>
          <path id="Path_887" data-name="Path 887" d="M180.856,132.708V63.973L244.208.621,243.586,0,179.978,63.609v68.736l-105.7,105.7H0v.879H74.642Z" fill="#4e83ff"/>
          <path id="Path_888" data-name="Path 888" d="M0,94.086,40.29,53.795a2.06,2.06,0,1,0-.623-.619L.879,91.964V57.5L57.756.621,57.135,0,0,57.135Z" transform="translate(192.298 12.112)" fill="#4e83ff"/>
          <path id="Path_889" data-name="Path 889" d="M19.374,49.786,49.217,19.943H86.941a2.05,2.05,0,1,0-.025-.879H48.854L19.011,48.908H2.121L50.407.621,49.786,0,0,49.786Z" transform="translate(256.028 14.827)" fill="#4e83ff"/>
          <path id="Path_890" data-name="Path 890" d="M3.1,74.277A2.054,2.054,0,1,0,4.12,76.044a2.048,2.048,0,0,0-.368-1.172L34.96,43.664h48.1L101.2,25.518V0h-.879V25.154L82.693,42.785H34.6Z" transform="translate(270.094 16.738)" fill="#4e83ff"/>
          <path id="Path_891" data-name="Path 891" d="M26.043,127.766a2.063,2.063,0,1,0,.879,0V48.357l10.81,10.811V82.4L31.37,88.777v19.052a2.49,2.49,0,1,0,.879,0V89.14l6.362-6.374V58.8L26.922,47.115V26.3L.621,0,0,.621,26.043,26.664Zm7.377-17.477a1.623,1.623,0,1,1-2.05-1.558,1.743,1.743,0,0,1,.422-.059,1.437,1.437,0,0,1,.457.07A1.62,1.62,0,0,1,33.42,110.289Z" transform="translate(84.608 43.434)" fill="#4e83ff"/>
          <path id="Path_892" data-name="Path 892" d="M137.443,2.533h62.8a2.051,2.051,0,1,0-.019-.879H137.08L80,58.731H0v.879H80.367Z" transform="translate(0 205.919)" fill="#4e83ff"/>
          <path id="Path_893" data-name="Path 893" d="M90.9,2.5a2.06,2.06,0,1,0,0-.879H79.7L50.128,31.187H2.122L26.486,6.822a2.108,2.108,0,1,0-.606-.636L0,32.066H50.493L80.059,2.5Z" transform="translate(156.835 153.526)" fill="#4e83ff"/>
          <path id="Path_894" data-name="Path 894" d="M26.715,20.551,42.392,4.874H42.4a2.365,2.365,0,0,0,1.359.422,2.513,2.513,0,1,0-2-1.019l-15.408,15.4H2.121L17.306,4.5a2.5,2.5,0,0,0,3.984-2A2.5,2.5,0,1,0,16.7,3.867L0,20.551ZM42.146,2.8a1.617,1.617,0,1,1,1.617,1.617,1.547,1.547,0,0,1-.726-.176,1.511,1.511,0,0,1-.644-.6A1.613,1.613,0,0,1,42.146,2.8Zm-24.98-.3a1.637,1.637,0,1,1,.773,1.371,1.511,1.511,0,0,1-.6-.644A1.547,1.547,0,0,1,17.165,2.5Z" transform="translate(176.484 157.062)" fill="#4e83ff"/>
          <path id="Path_895" data-name="Path 895" d="M23.173,31.233V17.644L8.7,3.171a2.066,2.066,0,1,0-.621.621L22.294,18.008V30.869L17.532,35.63V20.771L3.793,7.03a2.071,2.071,0,1,0-.62.622l.006.007L16.653,21.146V40a2.5,2.5,0,1,0,.879,0V36.873ZM18.715,42.47a1.623,1.623,0,0,1-3.246,0,1.6,1.6,0,0,1,1.183-1.558,1.416,1.416,0,0,1,.445-.07,1.344,1.344,0,0,1,.434.07A1.6,1.6,0,0,1,18.715,42.47Z" transform="translate(100.051 44.712)" fill="#4e83ff"/>
          <path id="Path_896" data-name="Path 896" d="M32.847,91.591V0h-.879V91.227L1.622,121.576v39.359a2.059,2.059,0,1,0,.879,0v-39Z" transform="translate(402.208 20.009)" fill="#4e83ff"/>
          <path id="Path_897" data-name="Path 897" d="M271.082,0a2.5,2.5,0,0,0-2.5,2.5,2.464,2.464,0,0,0,.445,1.429L214.2,58.76H147.6L90.021,116.337H0v.879H90.384l57.577-57.577h66.6l55.1-55.093A2.382,2.382,0,0,0,271.082,5a2.5,2.5,0,0,0,0-5Zm.9,3.843a1.613,1.613,0,0,1-.9.281,1.516,1.516,0,0,1-.785-.211l.012-.012a1.513,1.513,0,0,1-.7-.773.043.043,0,0,1-.012-.035,1.308,1.308,0,0,1-.129-.6,1.613,1.613,0,0,1,.281-.9,1.528,1.528,0,0,1,.434-.434,1.588,1.588,0,0,1,1.8,0,1.405,1.405,0,0,1,.246.2A1.643,1.643,0,0,1,272.7,2.5,1.618,1.618,0,0,1,271.985,3.843Z" transform="translate(0.004 178.387)" fill="#4e83ff"/>
          <path id="Path_898" data-name="Path 898" d="M78.595,13.91,88.72,3.783a2.038,2.038,0,0,0,1.122.336,2.073,2.073,0,1,0-1.738-.963L77.716,13.546V54.63L66.594,65.752H33.776L3.169,96.359a2.071,2.071,0,1,0,.621.621L34.14,66.631H66.957L78.595,54.993Z" transform="translate(234.251 91.409)" fill="#4e83ff"/>
          <path id="Path_899" data-name="Path 899" d="M138.888,2.2h62.886a2.052,2.052,0,1,0,.129-.879H138.524L94.307,45.538H0v.879H94.671Z" transform="translate(0 266.304)" fill="#4e83ff"/>
          <path id="Path_900" data-name="Path 900" d="M4.968,2.062A2.5,2.5,0,1,0,2.507,5,2.524,2.524,0,0,0,4.968,2.941h77.46L50.851,34.518H31.776a2.5,2.5,0,1,0,0,.879H51.215L84.549,2.062Zm-.914.879A1.6,1.6,0,0,1,2.507,4.124,1.623,1.623,0,1,1,4.054,2.062a1.416,1.416,0,0,1,.07.445A1.344,1.344,0,0,1,4.054,2.941ZM30.862,35.4a1.445,1.445,0,0,1-.434.726.75.75,0,0,1-.176.152,1.7,1.7,0,0,1-.633.269,1.278,1.278,0,0,1-.3.035H29.3a1.623,1.623,0,0,1-1.617-1.629,1.557,1.557,0,0,1,.48-1.137,1.246,1.246,0,0,1,.234-.2,1.585,1.585,0,0,1,.9-.281h.012a1.454,1.454,0,0,1,.316.035.921.921,0,0,1,.3.094,1.08,1.08,0,0,1,.281.152,1.051,1.051,0,0,1,.223.176,1.462,1.462,0,0,1,.328.48,2.115,2.115,0,0,1,.094.246,1.345,1.345,0,0,1,.07.434A1.418,1.418,0,0,1,30.862,35.4Z" transform="translate(155.393 249.461)" fill="#4e83ff"/>
          <path id="Path_901" data-name="Path 901" d="M49.411,2.941h17.7a2.5,2.5,0,1,0,0-.879H49.048L33.98,17.13V29.081L17.752,45.321H4.073a2.062,2.062,0,1,0,0,.879H18.116L46.552,17.751H58.058a2.5,2.5,0,1,0,0-.879H46.189L34.859,28.2V17.493ZM69.576.879a1.623,1.623,0,0,1,0,3.246A1.6,1.6,0,0,1,68.03,2.941a1.344,1.344,0,0,1-.07-.434,1.416,1.416,0,0,1,.07-.445A1.6,1.6,0,0,1,69.576.879Zm-9.045,14.81a1.623,1.623,0,1,1-1.558,2.062,1.417,1.417,0,0,1-.07-.445,1.345,1.345,0,0,1,.07-.434A1.624,1.624,0,0,1,60.531,15.689Z" transform="translate(229.865 192.728)" fill="#4e83ff"/>
          <path id="Path_902" data-name="Path 902" d="M61.411,2.941a2.5,2.5,0,1,0,0-.879H14.262L3.167,13.157a2.056,2.056,0,1,0,.953,1.732,2.042,2.042,0,0,0-.33-1.112L14.637,2.941ZM63.871.879a1.623,1.623,0,0,1,0,3.246,1.6,1.6,0,0,1-1.547-1.183,1.417,1.417,0,0,1-.07-.445,1.344,1.344,0,0,1,.07-.434A1.6,1.6,0,0,1,63.871.879Z" transform="translate(125.736 211.639)" fill="#4e83ff"/>
          <path id="Path_903" data-name="Path 903" d="M97.674,72.829V32.592l28.8-28.8a2.071,2.071,0,1,0-.621-.622L96.8,32.229V72.464L55.989,113.27H0v.879H56.354Z" transform="translate(60.974 359.918)" fill="#4e83ff"/>
          <path id="Path_904" data-name="Path 904" d="M24.359,31.226,51.039,4.546A2.382,2.382,0,0,0,52.457,5a2.486,2.486,0,1,0-2.05-1.066L23.481,30.862V70.676L3.925,90.232A2.392,2.392,0,0,0,2.5,89.775a2.5,2.5,0,1,0,2.5,2.507,2.465,2.465,0,0,0-.445-1.429L24.359,71.04ZM50.84,2.507a1.617,1.617,0,1,1,1.617,1.617,1.516,1.516,0,0,1-.785-.211,1.582,1.582,0,0,1-.621-.621A1.516,1.516,0,0,1,50.84,2.507ZM4.113,92.282A1.617,1.617,0,1,1,2.5,90.654a1.423,1.423,0,0,1,.785.223A1.385,1.385,0,0,1,3.9,91.5,1.516,1.516,0,0,1,4.113,92.282Z" transform="translate(121.696 355.16)" fill="#4e83ff"/>
          <path id="Path_905" data-name="Path 905" d="M31.179,3.792a2.035,2.035,0,0,0,1.107.328,2.07,2.07,0,1,0-1.729-.948L2.062,31.666V63.079a2.5,2.5,0,1,0,.879,0V32.029ZM4.124,65.54a1.623,1.623,0,0,1-3.246,0,1.6,1.6,0,0,1,1.183-1.547,1.416,1.416,0,0,1,.445-.07,1.344,1.344,0,0,1,.434.07A1.6,1.6,0,0,1,4.124,65.54Z" transform="translate(217.458 255.512)" fill="#4e83ff"/>
          <path id="Path_906" data-name="Path 906" d="M0,25.426V26.3H35.936L57.682,4.546a2.455,2.455,0,0,0,1.418.445,2.5,2.5,0,1,0-2.5-2.5,2.392,2.392,0,0,0,.457,1.429l-21.489,21.5ZM57.483,2.5A1.617,1.617,0,1,1,59.1,4.113a1.446,1.446,0,0,1-.773-.211,1.33,1.33,0,0,1-.621-.621A1.423,1.423,0,0,1,57.483,2.5Z" transform="translate(76.421 416.134)" fill="#4e83ff"/>
          <path id="Path_907" data-name="Path 907" d="M23.112,32.414H0v.879H23.476L54.269,2.5H69.822a2.06,2.06,0,1,0,0-.879H53.9Z" transform="translate(82.691 303.025)" fill="#4e83ff"/>
          <path id="Path_908" data-name="Path 908" d="M26.07,2.062H4.956a2.5,2.5,0,1,0,0,.879H25.707L37.166,14.412,19.239,32.339a2.425,2.425,0,0,0-1.312-.387,2.5,2.5,0,1,0,2.5,2.5,2.474,2.474,0,0,0-.527-1.523L38.408,14.412ZM2.5,4.124A1.623,1.623,0,0,1,2.5.879,1.6,1.6,0,0,1,4.042,2.062a1.416,1.416,0,0,1,.07.445,1.344,1.344,0,0,1-.07.434A1.6,1.6,0,0,1,2.5,4.124ZM19.544,34.448a1.623,1.623,0,1,1-1.617-1.617,1.468,1.468,0,0,1,.668.152,1.392,1.392,0,0,1,.668.574A1.491,1.491,0,0,1,19.544,34.448Z" transform="translate(138.662 295.579)" fill="#4e83ff"/>
          <path id="Path_909" data-name="Path 909" d="M22.8,38.857V18.469L37.47,3.789a2.07,2.07,0,1,0-.62-.622h0L21.922,18.106V38.494L2.062,58.354V71.57a2.49,2.49,0,1,0,.879,0V58.717ZM4.113,74.031a1.617,1.617,0,0,1-3.234,0,1.6,1.6,0,0,1,1.183-1.547,1.344,1.344,0,0,1,.434-.07,1.416,1.416,0,0,1,.445.07A1.6,1.6,0,0,1,4.113,74.031Z" transform="translate(124.016 310.222)" fill="#4e83ff"/>
          <path id="Path_910" data-name="Path 910" d="M24.008,33.71v-20.9l8.26-8.26A2.444,2.444,0,0,0,33.7,5,2.5,2.5,0,1,0,31.19,2.5a2.392,2.392,0,0,0,.457,1.429l-8.518,8.518v20.9L2.062,54.413V81.046a2.49,2.49,0,1,0,.879,0V54.777ZM32.069,2.5A1.623,1.623,0,1,1,33.7,4.124a1.528,1.528,0,0,1-.8-.211,1.583,1.583,0,0,1-.621-.621A1.528,1.528,0,0,1,32.069,2.5ZM4.113,83.506a1.617,1.617,0,1,1-3.234,0A1.6,1.6,0,0,1,2.062,81.96a1.346,1.346,0,0,1,.434-.07,1.417,1.417,0,0,1,.445.07A1.6,1.6,0,0,1,4.113,83.506Z" transform="translate(117.489 312.287)" fill="#4e83ff"/>
          <path id="Path_911" data-name="Path 911" d="M1.617,15.207a2.058,2.058,0,1,0,.879,0v-5.8L8.975,2.941H21.782a2.5,2.5,0,1,0,0-.879H8.612L1.617,9.045ZM24.242.879a1.617,1.617,0,1,1,0,3.234A1.6,1.6,0,0,1,22.7,2.941a1.416,1.416,0,0,1-.07-.445,1.344,1.344,0,0,1,.07-.434A1.6,1.6,0,0,1,24.242.879Z" transform="translate(100.312 23.395)" fill="#4e83ff"/>
          <path id="Path_912" data-name="Path 912" d="M165.911,0a2.5,2.5,0,0,0-2.5,2.5,2.392,2.392,0,0,0,.457,1.429L114.216,53.57V94.263L60.787,147.692H0v.879H61.151L115.1,94.626V53.933l49.4-49.387A2.495,2.495,0,1,0,165.911,0Zm0,4.113a1.446,1.446,0,0,1-.773-.211,1.331,1.331,0,0,1-.621-.621,1.423,1.423,0,0,1-.223-.785,1.617,1.617,0,1,1,1.617,1.617Z" transform="translate(60.979 343.314)" fill="#4e83ff"/>
          <path id="Path_913" data-name="Path 913" d="M0,63.489a2.5,2.5,0,0,0,4.991,0,2.529,2.529,0,0,0-.445-1.441L62.776,3.83a2.038,2.038,0,0,0,1.036.289,2.069,2.069,0,1,0-1.685-.881l0,0-58.21,58.2A2.382,2.382,0,0,0,2.5,60.982,2.5,2.5,0,0,0,0,63.489Zm3.9-.8a1.528,1.528,0,0,1,.211.8A1.617,1.617,0,1,1,2.5,61.861a1.516,1.516,0,0,1,.785.211A1.51,1.51,0,0,1,3.9,62.692Z" transform="translate(196.403 78.645)" fill="#4e83ff"/>
          <path id="Path_914" data-name="Path 914" d="M46.305,5a2.5,2.5,0,1,0-2.507-2.5,2.383,2.383,0,0,0,.457,1.418L0,48.18H37.705a2.49,2.49,0,1,0,0-.879H2.121L44.876,4.546A2.444,2.444,0,0,0,46.305,5Zm-6.14,41.126a1.617,1.617,0,1,1,0,3.234,1.6,1.6,0,0,1-1.547-1.183,1.345,1.345,0,0,1-.07-.434,1.417,1.417,0,0,1,.07-.445A1.6,1.6,0,0,1,40.166,46.129ZM44.677,2.507a1.623,1.623,0,1,1,1.629,1.617,1.528,1.528,0,0,1-.8-.211,1.51,1.51,0,0,1-.621-.621A1.516,1.516,0,0,1,44.677,2.507Z" transform="translate(212.631 98.876)" fill="#4e83ff"/>
          <path id="Path_915" data-name="Path 915" d="M97.87,2.5a2.383,2.383,0,0,0,.457,1.418L81.338,20.9H37.821L3.164,55.56a2.061,2.061,0,1,0,.625.619l34.4-34.4H81.7L98.936,4.546a2.62,2.62,0,0,0,1.441.445A2.5,2.5,0,1,0,97.87,2.5ZM100.378.879a1.617,1.617,0,0,1,0,3.234,1.528,1.528,0,0,1-.8-.211,1.51,1.51,0,0,1-.621-.621,1.516,1.516,0,0,1-.211-.785A1.623,1.623,0,0,1,100.378.879Z" transform="translate(272.154 56.285)" fill="#4e83ff"/>
          <path id="Path_916" data-name="Path 916" d="M19.5,187.213V150.8l-7.792-7.8V115.517l7.511-7.511v-4.734l19.86-19.86a2.383,2.383,0,0,0,1.418.457,2.5,2.5,0,1,0-2.5-2.5,2.382,2.382,0,0,0,.457,1.418l-5.5,5.5V78.158L45.637,65.472V33.681l-6.374-6.374V0h-.879V61.971L2.05,98.3v83.752a2.5,2.5,0,1,0,2.941,2.472,2.516,2.516,0,0,0-2.062-2.472V98.668L39.263,62.334V28.551l5.5,5.494V65.107L32.074,77.793V89.174l0,0L18.337,102.9v4.734l-6.632,6.644v-13.24L21.957,90.794a2.382,2.382,0,0,0,1.418.457,2.5,2.5,0,1,0-2.5-2.507,2.465,2.465,0,0,0,.445,1.429l-10.5,10.5v42.685l7.792,7.8v36.053a2.478,2.478,0,1,0,.879,0ZM38.877,81.374a1.623,1.623,0,1,1,1.617,1.617,1.516,1.516,0,0,1-.785-.211,1.583,1.583,0,0,1-.621-.621A1.516,1.516,0,0,1,38.877,81.374ZM4.113,184.53a1.617,1.617,0,1,1-3.234,0,1.6,1.6,0,0,1,1.172-1.558,1.417,1.417,0,0,1,.445-.07,1.346,1.346,0,0,1,.434.07A1.6,1.6,0,0,1,4.113,184.53ZM21.758,88.744a1.617,1.617,0,1,1,1.617,1.629,1.635,1.635,0,0,1-1.617-1.629ZM19.04,191.29a1.615,1.615,0,0,1-.422-3.175,1.742,1.742,0,0,1,.422-.059,1.436,1.436,0,0,1,.457.07,1.614,1.614,0,0,1-.457,3.164Z" transform="translate(372.121 20.009)" fill="#4e83ff"/>
          <path id="Path_917" data-name="Path 917" d="M7.238,49.71V6.615L3.792,3.168a2.068,2.068,0,1,0-.621.622h0L6.359,6.979V49.71a2.5,2.5,0,1,0,.879,0ZM6.8,53.8a1.625,1.625,0,0,1-1.629-1.629,1.6,1.6,0,0,1,1.183-1.547,1.416,1.416,0,0,1,.445-.07,1.344,1.344,0,0,1,.433.07,1.6,1.6,0,0,1,1.183,1.547A1.623,1.623,0,0,1,6.8,53.8Z" transform="translate(378.264 171.15)" fill="#4e83ff"/>
          <path id="Path_918" data-name="Path 918" d="M2.5,112.764a2.5,2.5,0,0,0,.445-4.968V0H2.062V107.8a2.5,2.5,0,0,0,.434,4.968Zm-.434-4.054a1.345,1.345,0,0,1,.434-.07,1.416,1.416,0,0,1,.445.07,1.6,1.6,0,0,1,1.172,1.547,1.617,1.617,0,1,1-3.234,0A1.6,1.6,0,0,1,2.062,108.709Z" transform="translate(156.682 4.203)" fill="#4e83ff"/>
          <path id="Path_919" data-name="Path 919" d="M2.062,4.956V28.308l8.2,8.2V67.15L4.722,72.68v45.954a2.5,2.5,0,1,0,.879,0V73.043l5.542-5.53V36.147l-8.2-8.2V4.956a2.5,2.5,0,1,0-.879,0Zm4.722,116.15a1.623,1.623,0,1,1-2.062-1.558,1.417,1.417,0,0,1,.445-.07,1.345,1.345,0,0,1,.434.07A1.624,1.624,0,0,1,6.784,121.106ZM2.507.879A1.62,1.62,0,0,1,4.124,2.5,1.6,1.6,0,0,1,2.941,4.042a1.344,1.344,0,0,1-.434.07,1.416,1.416,0,0,1-.445-.07A1.6,1.6,0,0,1,.879,2.5,1.623,1.623,0,0,1,2.507.879Z" transform="translate(143.512 30.39)" fill="#4e83ff"/>
          <path id="Path_920" data-name="Path 920" d="M2.027,19.169a2.027,2.027,0,0,0,.434-4.007V9.819L8.553,3.726a2,2,0,0,0,1.113.328A2.027,2.027,0,1,0,7.639,2.027a1.926,1.926,0,0,0,.3,1.066L1.582,9.456v5.706a2.028,2.028,0,0,0,.445,4.007ZM8.342,2.027A1.318,1.318,0,1,1,9.666,3.339,1.236,1.236,0,0,1,9.081,3.2a1.33,1.33,0,0,1-.621-.621A1.4,1.4,0,0,1,8.342,2.027ZM1.582,15.912a1.155,1.155,0,0,1,.445-.082,1.1,1.1,0,0,1,.434.082,1.281,1.281,0,0,1,.879,1.23,1.312,1.312,0,1,1-1.758-1.23Z" transform="translate(95.79 21.802)" fill="#4e83ff"/>
          <path id="Path_921" data-name="Path 921" d="M67.935,0a2.5,2.5,0,0,0-2.461,2.062H33.78L3.925,31.917a2.455,2.455,0,0,0-1.418-.445,2.5,2.5,0,1,0,2.5,2.5,2.392,2.392,0,0,0-.457-1.429l29.6-29.6H65.474A2.5,2.5,0,1,0,67.935,0ZM4.124,33.967A1.623,1.623,0,1,1,2.507,32.35a1.446,1.446,0,0,1,.773.211,1.33,1.33,0,0,1,.621.621A1.423,1.423,0,0,1,4.124,33.967ZM67.935,4.124a1.6,1.6,0,0,1-1.547-1.183,1.344,1.344,0,0,1-.07-.434,1.415,1.415,0,0,1,.07-.445A1.6,1.6,0,0,1,67.935.879a1.623,1.623,0,0,1,0,3.246Z" transform="translate(211.881 29.547)" fill="#4e83ff"/>
          <path id="Path_922" data-name="Path 922" d="M2.5,44.138a2.5,2.5,0,1,0,2.5,2.507,2.52,2.52,0,0,0-.445-1.429L45.2,4.546h.012a2.465,2.465,0,0,0,1.429.445,2.5,2.5,0,1,0-2.5-2.5,2.455,2.455,0,0,0,.445,1.418L3.925,44.595A2.392,2.392,0,0,0,2.5,44.138ZM45.028,2.5a1.617,1.617,0,1,1,1.617,1.617,1.423,1.423,0,0,1-.785-.223,1.33,1.33,0,0,1-.621-.621A1.446,1.446,0,0,1,45.028,2.5ZM4.113,46.645A1.617,1.617,0,1,1,2.5,45.016a1.423,1.423,0,0,1,.785.223,1.385,1.385,0,0,1,.621.621A1.516,1.516,0,0,1,4.113,46.645Z" transform="translate(199.742 71.564)" fill="#4e83ff"/>
          <path id="Path_923" data-name="Path 923" d="M28.027,82.164V50.453l-8.319-8.319V26.386a2.5,2.5,0,1,0-.879.012V42.5l8.319,8.319v9.913L12.725,46.305V26.586l-9.8-9.8V4.956a2.49,2.49,0,1,0-.879,0v12.2l9.8,9.8v19.72l15.3,15.3V82.157a2.067,2.067,0,1,0,.879.007ZM17.611,23.938a1.623,1.623,0,0,1,3.246,0,1.589,1.589,0,0,1-1.148,1.535,1.274,1.274,0,0,1-.469.082,1.575,1.575,0,0,1-.41-.059A1.608,1.608,0,0,1,17.611,23.938ZM.879,2.5a1.617,1.617,0,0,1,3.234,0A1.6,1.6,0,0,1,2.929,4.042a1.345,1.345,0,0,1-.434.07,1.417,1.417,0,0,1-.445-.07A1.6,1.6,0,0,1,.879,2.5Z" transform="translate(339.443 134.519)" fill="#4e83ff"/>
          <path id="Path_924" data-name="Path 924" d="M25.777,75.166V47.219L2.929,24.371V4.968a2.49,2.49,0,1,0-.879,0V24.734L24.9,47.582V75.17a2.058,2.058,0,1,0,.879,0ZM.879,2.507a1.617,1.617,0,1,1,3.234,0A1.6,1.6,0,0,1,2.929,4.054a1.345,1.345,0,0,1-.434.07,1.417,1.417,0,0,1-.445-.07A1.6,1.6,0,0,1,.879,2.507Z" transform="translate(311.146 167.865)" fill="#4e83ff"/>
          <path id="Path_925" data-name="Path 925" d="M28.207,11.976a2.06,2.06,0,1,0-2.011-2.5H2.122L10.978.621,10.355,0,0,10.355H26.2A2.059,2.059,0,0,0,28.207,11.976Z" transform="translate(251.607 14.827)" fill="#4e83ff"/>
          <path id="Path_926" data-name="Path 926" d="M2.465,101.386V69.028l35.6-35.6V4.07a2.06,2.06,0,1,0-.879,0V33.062l-35.6,35.6v32.741a2.051,2.051,0,1,0,.879-.019Z" transform="translate(364.969 46.418)" fill="#4e83ff"/>
          <path id="Path_927" data-name="Path 927" d="M2.06,145.348a2.054,2.054,0,0,0,.569-4.029V0H1.751V141.26a2.055,2.055,0,0,0,.309,4.088Z" transform="translate(132.844 4.209)" fill="#4e83ff"/>
          <path id="Path_928" data-name="Path 928" d="M21.469,28.394a2.059,2.059,0,0,0,2.011-1.62h14.87L63.06,2.062H4.968A2.5,2.5,0,1,0,2.5,5,2.527,2.527,0,0,0,4.968,2.941H60.94L37.986,25.894H23.48a2.059,2.059,0,1,0-2.011,2.5ZM2.5,4.124A1.623,1.623,0,0,1,2.5.879,1.6,1.6,0,0,1,4.054,2.062a1.416,1.416,0,0,1,.07.445,1.344,1.344,0,0,1-.07.434A1.6,1.6,0,0,1,2.5,4.124Z" transform="translate(167.614 196.044)" fill="#4e83ff"/>
          <path id="Path_929" data-name="Path 929" d="M118.191,4.12a2.06,2.06,0,1,0-2.06-2.06,2.036,2.036,0,0,0,.213.9L56.266,63.036V84.241l-22.59,22.59H0v.879H34.039L57.145,84.6V63.4l59.75-59.75A2.042,2.042,0,0,0,118.191,4.12Z" transform="translate(76.426 313.056)" fill="#4e83ff"/>
          <path id="Path_930" data-name="Path 930" d="M37.091,0a2.058,2.058,0,0,0-2.009,1.617H13.838L3.925,11.529A2.465,2.465,0,0,0,2.5,11.084a2.5,2.5,0,1,0,2.5,2.5,2.465,2.465,0,0,0-.445-1.429L14.2,2.5H35.079A2.059,2.059,0,1,0,37.091,0ZM4.113,13.58A1.617,1.617,0,1,1,2.5,11.963a1.516,1.516,0,0,1,.785.211,1.582,1.582,0,0,1,.621.621A1.516,1.516,0,0,1,4.113,13.58Z" transform="translate(264.161 244.341)" fill="#4e83ff"/>
          <path id="Path_931" data-name="Path 931" d="M124.035,17.974a2.5,2.5,0,1,0-2.449-3.011H95.751L80.788,0H61.912L19.04,42.884H0v.879H19.4L62.275.879H80.425L95.387,15.841h26.176A2.518,2.518,0,0,0,124.035,17.974Zm0-4.124a1.623,1.623,0,1,1,0,3.246,1.607,1.607,0,0,1-1.57-1.254,1.317,1.317,0,0,1-.047-.375,1.242,1.242,0,0,1,.094-.5A1.593,1.593,0,0,1,124.035,13.849Z" transform="translate(82.69 284.835)" fill="#4e83ff"/>
          <path id="Path_932" data-name="Path 932" d="M54.987,0a2.5,2.5,0,0,0-2.461,2.062H20.259L3.937,18.384a2.465,2.465,0,0,0-1.429-.445,2.5,2.5,0,1,0,2.5,2.5,2.383,2.383,0,0,0-.457-1.418L20.622,2.941H52.527A2.5,2.5,0,1,0,54.987,0ZM4.124,20.434a1.623,1.623,0,1,1-1.617-1.617,1.516,1.516,0,0,1,.785.211,1.582,1.582,0,0,1,.621.621A1.516,1.516,0,0,1,4.124,20.434ZM54.987,4.124a1.6,1.6,0,0,1-1.547-1.183,1.345,1.345,0,0,1-.07-.434,1.417,1.417,0,0,1,.07-.445A1.61,1.61,0,0,1,54.987.879a1.623,1.623,0,0,1,0,3.246Z" transform="translate(258.655 218.048)" fill="#4e83ff"/>
          <path id="Path_933" data-name="Path 933" d="M90.2,0a2.513,2.513,0,0,0-2.461,2.062H77.953L57.647,22.356H45.192l7.627-7.627a2.067,2.067,0,1,0-.622-.619L28.5,37.8V67L2.941,92.564V63A2.5,2.5,0,1,0,0,60.541,2.524,2.524,0,0,0,2.062,63V94.684L29.374,67.36v-29.2L44.313,23.235H58.022L78.316,2.941h9.42A2.5,2.5,0,1,0,90.2,0ZM.879,60.541a1.623,1.623,0,1,1,2.062,1.547,1.417,1.417,0,0,1-.445.07,1.345,1.345,0,0,1-.433-.07A1.6,1.6,0,0,1,.879,60.541ZM90.2,4.113A1.6,1.6,0,0,1,88.65,2.941a1.415,1.415,0,0,1-.07-.445,1.343,1.343,0,0,1,.07-.434A1.6,1.6,0,0,1,90.2.879a1.617,1.617,0,1,1,0,3.234Z" transform="translate(204.229 252.191)" fill="#4e83ff"/>
          <path id="Path_934" data-name="Path 934" d="M25,120.8V104.7L2.929,82.639V4.968A2.5,2.5,0,1,0,0,2.5,2.506,2.506,0,0,0,2.05,4.968V83l22.075,22.063V120.8a2.49,2.49,0,1,0,.879,0ZM.879,2.5a1.617,1.617,0,0,1,3.234,0A1.6,1.6,0,0,1,2.929,4.054a1.345,1.345,0,0,1-.434.07,1.416,1.416,0,0,1-.445-.07A1.6,1.6,0,0,1,.879,2.5Zm23.68,122.383a1.62,1.62,0,0,1-1.617-1.617,1.6,1.6,0,0,1,1.183-1.547,1.345,1.345,0,0,1,.434-.07,1.416,1.416,0,0,1,.445.07,1.6,1.6,0,0,1,1.172,1.547A1.62,1.62,0,0,1,24.559,124.879Z" transform="translate(324.094 106.257)" fill="#4e83ff"/>
        </g>
      </g>
    </g>
  </g>
</svg>
