<svg xmlns="http://www.w3.org/2000/svg" width="14" height="15" viewBox="0 0 14 15">
  <path id="icon_calendar" data-name="icon calendar" d="M-344.191-710.4h-1.4v-.682a.691.691,0,0,0-.7-.682.691.691,0,0,0-.7.682v.682h-4.2v-.682a.691.691,0,0,0-.7-.682.691.691,0,0,0-.7.682v.682h-1.4a2.075,2.075,0,0,0-2.1,2.045v9.545a2.075,2.075,0,0,0,2.1,2.045h9.8a2.075,2.075,0,0,0,2.1-2.045v-9.545A2.076,2.076,0,0,0-344.191-710.4Zm-9.8,1.364h1.4v.682a.691.691,0,0,0,.7.682.691.691,0,0,0,.7-.682v-.682h4.2v.682a.691.691,0,0,0,.7.682.691.691,0,0,0,.7-.682v-.682h1.4a.692.692,0,0,1,.7.682v2.045h-11.2v-2.045A.692.692,0,0,1-353.991-709.034Zm9.8,10.909h-9.8a.692.692,0,0,1-.7-.682v-6.136h11.2v6.136A.692.692,0,0,1-344.191-698.125Z" transform="translate(356.091 711.761)" fill="#febe0f"/>
</svg>
