<svg xmlns="http://www.w3.org/2000/svg" width="32.188" height="23.047" viewBox="0 0 32.188 23.047">
  <path id="icon_quote" data-name="icon quote" d="M-16.094-35.039v-1.367a14.1,14.1,0,0,0,4.609-4.082,10.285,10.285,0,0,0,1.875-4.551,6.6,6.6,0,0,1-4.3-2.3,6.266,6.266,0,0,1-1.523-4.023,6.51,6.51,0,0,1,1.973-4.707,6.589,6.589,0,0,1,4.9-2.012A6.212,6.212,0,0,1-3.3-55.645a8.843,8.843,0,0,1,1.855,5.488,13.611,13.611,0,0,1-1.484,5.9,15.839,15.839,0,0,1-4.746,5.605A20.569,20.569,0,0,1-16.094-35.039Zm17.539,0v-1.367a14.322,14.322,0,0,0,4.648-4.141,9.573,9.573,0,0,0,1.758-4.492,6.519,6.519,0,0,1-4.277-2.3,6.314,6.314,0,0,1-1.5-4.023,6.669,6.669,0,0,1,.879-3.32,6.524,6.524,0,0,1,2.461-2.48,6.767,6.767,0,0,1,3.457-.918,6.5,6.5,0,0,1,4,1.211,7.534,7.534,0,0,1,2.422,3.008,9.025,9.025,0,0,1,.8,3.711,13.611,13.611,0,0,1-1.484,5.9,15.743,15.743,0,0,1-4.727,5.586A20.964,20.964,0,0,1,1.445-35.039Z" transform="translate(16.094 58.086)" fill="#4d81fe"/>
</svg>
