<svg xmlns="http://www.w3.org/2000/svg" width="22.303" height="10.154" viewBox="0 0 22.303 10.154">
  <path id="Nav_arrow" data-name="Nav arrow" d="M6.574,286.716l1.133.654.057.033.62.358.62.358.067.039,1.1.633.075.043.62.358.334.193,1.8,1.037.347.2.353.2.413.238.474.274.478.276.761.44.62-.358.62-.358.48-.277.278-.161.48-.277.48-.277,1.631-.942.367-.212.62-.358.341-.2.784-.452.115-.066.62-.358.62-.358.114-.066L25,286.753l.114-.066,1.859-1.073L25.73,281.9l-.62.358-.62.358-.62.358-.62.358-.62.358-.62.358-.585.338-.166.1-.488.282-.62.358-.62.358-.62.358-.223.129-.471.272-.545.315-.62.358-.62.358-.62.358-.62-.358-.62-.358-.62-.358-.62-.358-.62-.358-.62-.358-.618-.357-.008,0-.614-.354-.62-.358-.62-.358L9,283.687l-.62-.358-.62-.358-.611-.353-.02-.011-.608-.351L5.9,281.9l-1.239,3.715,1.859,1.073Z" transform="translate(-4.666 -281.899)" fill="#febe0f"/>
</svg>
